<svg width="180" height="258" viewBox="0 0 180 258" fill="none" xmlns="http://www.w3.org/2000/svg">
<path d="M62.1498 198.17H68.9098L58.6398 232.56H48.9998L38.7598 198.17H45.5198L53.8398 226.83L62.1498 198.17Z" fill="black"/>
<path d="M87.6993 232.559H82.5393L82.0793 230.849C79.8495 232.297 77.248 233.069 74.5893 233.069C69.9993 233.069 68.0293 229.919 68.0293 225.589C68.0293 220.479 70.2493 218.509 75.3593 218.509H81.3593V215.879C81.3593 213.089 80.5893 212.109 76.5593 212.109C74.2056 212.132 71.8602 212.393 69.5593 212.889L68.7893 208.089C71.5962 207.308 74.4956 206.907 77.4093 206.899C85.3093 206.899 87.6293 209.689 87.6293 215.989L87.6993 232.559ZM81.3993 223.059H76.7593C74.6893 223.059 74.1293 223.629 74.1293 225.539C74.1293 227.289 74.6893 228.069 76.6593 228.069C78.3226 228.045 79.9529 227.601 81.3993 226.779V223.059Z" fill="black"/>
<path d="M97.6203 207.409V224.999C97.6203 226.339 98.1803 226.999 99.6203 226.999C101.927 226.737 104.157 226.017 106.18 224.879V207.409H112.47V232.559H107.67L107.05 230.439C103.92 232.006 100.497 232.902 97.0003 233.069C92.8103 233.069 91.3203 230.129 91.3203 225.639V207.409H97.6203Z" fill="black"/>
<path d="M115.84 232.56V197.14L122.14 196.26V232.56H115.84Z" fill="black"/>
<path d="M140.931 232.09C139.154 232.721 137.286 233.058 135.401 233.09C130.811 233.09 128.491 230.93 128.491 226.43V212.43H124.721V207.43H128.491V201.19L134.791 200.31V207.43H141.241L140.831 212.43H134.831V225.6C134.794 225.904 134.828 226.214 134.929 226.503C135.031 226.793 135.198 227.055 135.418 227.27C135.637 227.484 135.903 227.646 136.195 227.741C136.487 227.836 136.797 227.863 137.101 227.82C138.169 227.785 139.228 227.61 140.251 227.3L140.931 232.09Z" fill="black"/>
<path d="M45.4591 189.74V184.91H41.0491V189.74H38.7891V178.15H41.0491V183H45.4591V178.14H47.7191V189.73L45.4591 189.74ZM55.9791 189.74H54.1891L54.0291 189.17C53.2529 189.656 52.3549 189.913 51.4391 189.91C49.8491 189.91 49.1691 188.91 49.1691 187.42C49.1691 185.72 49.9391 185.07 51.7091 185.07H53.7991V184.19C53.7991 183.27 53.5291 182.94 52.1391 182.94C51.3258 182.946 50.5151 183.033 49.7191 183.2L49.4491 181.6C50.428 181.34 51.4361 181.205 52.4491 181.2C55.1891 181.2 55.9891 182.13 55.9891 184.2L55.9791 189.74ZM53.7991 186.58H52.1891C51.4791 186.58 51.2791 186.77 51.2791 187.41C51.2791 188.05 51.4791 188.25 52.1491 188.25C52.7257 188.242 53.2917 188.094 53.7991 187.82V186.58ZM60.5491 189.91C59.531 189.898 58.5202 189.736 57.5491 189.43L57.8491 187.83C58.6957 188.067 59.5699 188.191 60.4491 188.2C61.4491 188.2 61.5591 187.99 61.5591 187.35C61.5591 186.71 61.4491 186.58 60.0391 186.25C57.9091 185.76 57.6591 185.25 57.6591 183.63C57.6591 182.01 58.4291 181.2 60.9091 181.2C61.7875 181.203 62.6629 181.303 63.5191 181.5L63.3091 183.16C62.5162 183.02 61.714 182.939 60.9091 182.92C59.9591 182.92 59.7991 183.13 59.7991 183.64C59.7991 184.31 59.8591 184.36 61.0391 184.64C63.4691 185.26 63.6991 185.56 63.6991 187.28C63.6991 189 63.1791 189.91 60.5491 189.91ZM70.5491 189.74V183.9C70.5491 183.45 70.3491 183.23 69.8491 183.23C69.053 183.315 68.2815 183.556 67.5791 183.94V189.74H65.3891V178L67.5791 178.33V182C68.5709 181.511 69.6541 181.235 70.7591 181.19C72.2091 181.19 72.7591 182.19 72.7591 183.67V189.73L70.5491 189.74ZM74.5491 180.19V178.19H76.7291V180.19H74.5491ZM74.5491 189.74V181.38H76.7291V189.74H74.5491ZM78.4791 181.44C78.4791 179.35 79.7491 178.13 82.7191 178.13C83.8068 178.131 84.8908 178.258 85.9491 178.51L85.6991 180.38C84.7383 180.206 83.7652 180.109 82.7891 180.09C81.2291 180.09 80.7291 180.6 80.7291 181.82V186.22C80.7291 187.44 81.2291 187.95 82.7891 187.95C83.7652 187.931 84.7383 187.834 85.6991 187.66L85.9491 189.54C84.8904 189.788 83.8064 189.913 82.7191 189.91C79.7191 189.91 78.4791 188.69 78.4791 186.6V181.44ZM90.7791 189.91C87.7791 189.91 86.9791 188.33 86.9791 186.61V184.5C86.9791 182.78 87.7891 181.2 90.7791 181.2C93.7691 181.2 94.5691 182.78 94.5691 184.5V186.61C94.5791 188.33 93.7691 189.91 90.7891 189.91H90.7791ZM90.7791 182.99C89.6091 182.99 89.1691 183.49 89.1691 184.43V186.68C89.1691 187.63 89.6091 188.13 90.7791 188.13C91.9491 188.13 92.3891 187.63 92.3891 186.68V184.43C92.3991 183.49 91.9991 183 90.7891 183L90.7791 182.99ZM100.709 183.13C99.9121 183.477 99.1432 183.885 98.4091 184.35V189.74H96.2291V181.38H98.0791L98.2191 182.3C98.9325 181.837 99.7021 181.468 100.509 181.2L100.709 183.13ZM109.439 186.96C109.439 188.81 108.579 189.91 106.559 189.91C105.777 189.904 104.996 189.824 104.229 189.67V193.09L102.049 193.42V181.42H103.789L103.999 182.12C104.801 181.547 105.763 181.239 106.749 181.24C108.509 181.24 109.439 182.24 109.439 184.15V186.96ZM104.229 187.9C104.863 188.039 105.51 188.116 106.159 188.13C106.949 188.13 107.259 187.77 107.259 187.01V184.06C107.259 183.37 106.989 182.99 106.179 182.99C105.444 183.001 104.736 183.27 104.179 183.75L104.229 187.9Z" fill="black"/>
<path d="M27 27.4395L89.77 153.439L153 27.4395H27ZM97.24 52.7295H104.55V59.9995H97.24V52.7295ZM82.7 81.9395H75.39V74.6395H82.7V81.9395ZM82.7 70.9395H75.39V63.6795H82.7V70.9395ZM82.7 59.9395H75.39V52.6395H82.7V59.9395ZM93.7 92.8094H86.4V85.5994H93.7V92.8094ZM93.7 81.8094H86.4V74.5095H93.7V81.8094ZM93.7 70.8094H86.4V63.6795H93.7V70.8094ZM93.7 59.8095H86.4V52.5095H93.7V59.8095ZM97.29 63.4594H104.6V70.9995H97.24L97.29 63.4594ZM97.35 81.7195V74.4194H104.66V81.7195H97.35Z" fill="black"/>
</svg>
